<svg version="1.2" xmlns="http://www.w3.org/2000/svg" viewBox="0 0 342 392" width="342" height="392">
	<title>logoP5</title>
	<style>
		.s0 { fill: #000000 } 
		.s1 { fill: #7705b6 } 
	</style>
	<g id="logoP52">
		<path id="Path 1" class="s0" d="m250.5 265.9c-3.3 1-7.3 2.4-9 3.1-1.7 0.6-4.9 2.5-7.3 4.1-3.2 2.2-4.2 3.5-4.2 5.7 0 1.7 1.7 5 4.6 8.7 2.5 3.3 5.5 7.2 6.7 8.8 1.2 1.5 3 2.7 4 2.7 0.9 0 3.4-1.3 5.5-2.9 2-1.6 5.5-3.7 7.7-4.6 2.2-0.9 6.7-1.9 10-2.2 3.9-0.4 8.2 0 12.3 1.1 3.4 0.9 8.1 2.8 10.4 4.2 2.4 1.5 5.8 4 7.6 5.8 1.9 1.7 4.6 4.9 6.1 7.1 1.6 2.2 3.8 6.7 5.1 10 2.1 5.3 2.4 8.2 2.8 24.5 0.3 13.1 0.8 19.3 1.8 21.3 0.8 1.5 2.8 3.4 4.4 4.2 1.6 0.8 4.6 1.5 6.5 1.5 1.9 0 4.9-0.7 6.5-1.5 1.6-0.8 3.7-2.9 4.5-4.5 1.2-2.4 1.5-7.2 1.5-22.7 0-14.3-0.5-21.6-1.6-26.3-0.8-3.6-3.1-9.4-4.9-13-1.9-3.6-5.6-9.2-8.3-12.5-2.6-3.3-7.5-8.1-10.7-10.8-3.3-2.6-8.7-6.1-12-7.7-3.3-1.6-9.1-3.6-13-4.5-4.2-0.9-11.8-1.4-19-1.4-8.5 0-13.8 0.6-18 1.8z"/>
		<path id="Path 2" class="s1" d="m251.5 266.9c-3.3 1-7.3 2.4-9 3.1-1.7 0.6-4.9 2.5-7.3 4.1-2.3 1.6-4.2 3.7-4.2 4.7 0 0.9 1.9 4.2 4.3 7.3 2.3 3.1 5.4 7.1 6.9 9 2.1 2.6 3.1 3.2 4.2 2.4 0.8-0.5 3.4-2.3 5.8-4 2.3-1.6 6.5-3.6 9.3-4.3 2.7-0.6 7.2-1.2 10-1.2 2.7 0 7.6 0.7 10.8 1.5 3.1 0.8 7.6 2.7 9.9 4.1 2.4 1.5 5.8 4 7.6 5.8 1.9 1.7 4.6 4.9 6.1 7.1 1.6 2.2 3.8 6.7 5.1 10 2.1 5.3 2.4 8.2 2.8 24.5 0.3 13.1 0.8 19.3 1.8 21.3 0.8 1.5 2.8 3.4 4.4 4.2 1.6 0.8 4.1 1.5 5.5 1.5 1.4 0 3.9-0.7 5.5-1.5 1.6-0.8 3.7-2.8 4.5-4.5 1.2-2.4 1.5-7.1 1.5-21.7 0-13.4-0.5-20.7-1.6-25.3-0.8-3.6-3.1-9.4-4.9-13-1.9-3.6-5.6-9.2-8.2-12.5-2.7-3.2-7.5-8.1-10.8-10.7-3.3-2.7-8.7-6.2-12-7.8-3.3-1.6-9.1-3.6-13-4.5-4-0.8-11.7-1.4-18-1.4-7.5 0-12.9 0.6-17 1.8z"/>
		<path id="Path 3" class="s0" d="m149 266.3c-4.1 1.2-10.2 3.8-13.5 5.7-3.3 1.8-9.4 6.8-13.6 10.9-5.7 5.8-8.5 9.6-11.7 16.1-2.3 4.7-4.9 11.6-5.7 15.5-1.1 5.2-1.5 14.4-1.5 35.7 0 23.6 0.3 29.3 1.5 31.8 0.8 1.6 2.7 3.9 4.2 5 1.8 1.4 4.3 2.1 7 2 2.4 0 5.5-0.6 7-1.4 1.6-0.7 3.6-3 4.5-5 1.6-3.1 1.8-6.9 1.8-29.9 0-14.7 0.5-28.2 1.1-30.7 0.6-2.5 2.3-7 3.7-10 1.5-3 5.2-7.8 8.2-10.8 3.1-3 8.3-6.7 12-8.5 4.8-2.3 8.3-3.2 13.5-3.5 3.8-0.3 9.5 0.1 12.5 0.8 3 0.7 7.6 2.3 10.3 3.6 2.6 1.3 6.8 4.3 9.3 6.6 2.5 2.4 5.9 6.3 7.4 8.8 1.6 2.5 3.7 6.5 4.6 9 1.5 3.8 1.9 9.3 2.3 34.8l0.6 30.4c5 4.5 8.2 6.1 10.2 6.4 2.3 0.4 5.2 0.1 7.3-0.8 1.9-0.8 4.5-2.9 5.8-4.8 2.2-3.4 2.3-3.9 2.2-33.5 0-26.9-0.2-30.8-2-38-1.2-4.4-3.7-10.9-5.7-14.5-2-3.6-6.8-9.7-10.7-13.5-3.9-3.9-9.8-8.7-13.1-10.6-3.3-2-9.4-4.9-13.5-6.4-6.8-2.5-9-2.8-23-3.2-13.9-0.3-16.3-0.1-23 2z"/>
		<path id="Path 4" class="s1" d="m150 267.3c-4.1 1.2-10.2 3.8-13.5 5.7-3.3 1.8-9.4 6.8-13.6 10.9-5.7 5.8-8.5 9.6-11.7 16.1-2.3 4.7-4.9 11.6-5.7 15.5-1.1 5.2-1.5 14.3-1.5 34.7 0 22.7 0.3 28.3 1.5 30.8 0.8 1.6 2.7 3.9 4.2 5 1.6 1.2 4.3 2.1 6 2 1.8 0 4.5-0.6 6-1.4 1.6-0.7 3.6-3 4.5-5 1.6-3.1 1.8-6.9 1.8-29.9 0-14.7 0.5-28.2 1.1-30.7 0.6-2.5 2.3-7 3.7-10 1.5-3 5.2-7.8 8.2-10.8 3.1-3 8.3-6.7 12-8.5 5.2-2.5 8.1-3.2 14.5-3.5 4.4-0.3 10.5 0.1 13.5 0.8 3 0.7 7.6 2.3 10.3 3.6 2.6 1.3 6.8 4.3 9.3 6.6 2.5 2.4 5.9 6.3 7.4 8.8 1.6 2.5 3.7 6.5 4.6 9 1.5 3.8 1.9 9.3 2.3 34.7l0.6 30.1c3.9 4.1 6.6 5.8 8.5 6.4 2.8 0.8 4.3 0.7 7.2-0.6 2.1-0.9 4.7-3.1 5.8-4.9 1.9-3 2-5 2-32.2 0-26-0.2-29.8-2-37-1.2-4.4-3.7-10.9-5.7-14.5-2-3.6-6.8-9.7-10.7-13.5-3.9-3.9-9.8-8.7-13.1-10.6-3.3-2-9.4-4.8-13.5-6.4-6.7-2.5-9.1-2.8-22-3.1-12.9-0.4-15.3-0.2-22 1.9z"/>
		<path id="Path 5" class="s0" d="m50.5 265.5c-2.8 0.7-7.3 2.3-10 3.5-2.8 1.2-7.9 4.3-11.5 6.8-3.5 2.6-8.8 7.6-11.8 11.2-2.9 3.6-6.6 9.2-8.2 12.5-1.6 3.3-3.6 8.7-4.5 12-1.1 4.5-1.5 11.6-1.5 28.3v22.2c6.6 6.6 7.6 7 12.3 7 3.9 0.1 5.9-0.5 8.1-2.2 1.6-1.3 3.4-3.2 4-4.3 0.6-1.2 1.3-10.3 1.6-22.5l0.5-20.6c5.1-10.5 8.6-15 12.2-18.5 3.2-3.2 8.5-7 11.8-8.5 5.3-2.6 7.1-2.9 15.5-2.9 7.5 0 10.4 0.4 14 2.1 2.5 1.1 6.1 3.5 8 5.2 1.9 1.7 4.5 3.1 5.8 3.2 1.8 0 3.2-1.8 7.2-9 3.2-5.8 4.9-10 4.8-11.7-0.2-2.1-1.5-3.6-5.3-6.1-2.8-1.8-7.5-4.2-10.5-5.3-3-1.1-7.8-2.5-10.5-3-2.8-0.5-10-0.9-16-0.8-6 0-13.3 0.6-16 1.4z"/>
		<path id="Path 6" class="s1" d="m51.5 266.5c-2.8 0.7-7.3 2.3-10 3.5-2.8 1.2-7.9 4.3-11.5 6.8-3.5 2.6-8.8 7.6-11.8 11.2-2.9 3.6-6.6 9.2-8.2 12.5-1.6 3.3-3.6 8.7-4.5 12-1.1 4.5-1.5 11.5-1.5 27.3v21.2c6.4 6.4 7.8 7 11.3 7 2.9 0.1 5.1-0.6 7.1-2.2 1.6-1.3 3.4-3.2 4-4.3 0.6-1.2 1.3-10.3 1.6-22.5l0.5-20.6c5.1-10.5 8.6-15 12.2-18.5 3.2-3.2 8.5-7 11.8-8.5 5.4-2.6 7-2.9 16.5-2.9 8.6 0 11.3 0.4 15 2.1 2.5 1.1 6.1 3.4 8 5 1.8 1.6 4 3 4.7 3.2 0.7 0.1 3.5-3.8 6.3-8.8 2.7-4.9 4.9-9.8 4.7-10.7-0.1-1-2.5-3.3-5.2-5.1-2.8-1.8-7.5-4.2-10.5-5.3-3-1.1-7.8-2.5-10.5-3-2.8-0.5-9.5-0.9-15-0.8-5.5 0-12.3 0.6-15 1.4z"/>
		<path id="Path 7" class="s0" d="m213.1 242.5l-3.4 1.4 0.3 16.6c9.7 5.8 13.2 7.5 14 7.5 0.8 0 3.4-1.3 5.8-3l4.2-3c0-16.6-0.1-17.1-2.7-19-2.1-1.6-4.3-2.1-8.8-2-3.3 0-7.5 0.7-9.4 1.5z"/>
		<path id="Path 8" class="s1" d="m214.1 243.5l-3.4 1.4 0.3 14.6 13.1 8 8.4-6.1c0.5-15.1 0.4-15.5-2.2-17.4-2-1.5-4.3-2-7.8-2-2.7 0-6.5 0.7-8.4 1.5z"/>
		<path id="Path 9" class="s0" d="m248.1 197.5l-2.4 1.6c0.3 53.6 0.4 56 2.1 56.5 0.9 0.4 3.7 0.1 6.2-0.7 2.5-0.7 10.4-1.3 18-1.4l13.5-0.2 0.6-53.8c-4.3-3.3-6.7-3.6-20.1-3.6-12.3 0.1-16 0.4-17.9 1.6z"/>
		<path id="Path 10" class="s1" d="m249.1 198.5l-2.4 1.6c0.2 43.8 0.7 54.1 1.3 54.4 0.6 0.3 2.7 0 4.8-0.6 2-0.6 10-1.3 17.7-1.5l14-0.3 0.6-51.6c-4.3-3.3-6.6-3.6-19.1-3.6-11.4 0.1-15 0.4-16.9 1.6z"/>
		<path id="Path 11" class="s0" d="m161 185.9c-1.4 0.4-4.3 1.7-6.5 2.9-2.2 1.1-5.7 3.8-7.7 5.9-2 2.1-4.9 6.5-6.4 9.8-2.1 4.7-2.8 7.5-2.8 13 0 4.2 0.7 9.2 1.9 12.5 1.4 4.1 3.4 7 7.9 11.6 4.6 4.5 7.5 6.5 11.6 7.9 3.3 1.2 8.3 1.9 12.5 1.9 5.3 0 8.4-0.7 12.5-2.5 3-1.4 7.3-4.1 9.5-6.1 2.2-1.9 5.3-6 7-8.9 2.8-5 3-6.2 3-15.4 0-8.6-0.3-10.7-2.5-15-1.3-2.8-4.5-7.1-7-9.6-2.9-2.9-6.6-5.3-10.3-6.7-4.1-1.6-7.8-2.2-12.9-2.1-4 0-8.4 0.4-9.8 0.8z"/>
		<path id="Path 12" class="s1" d="m162 186.9c-1.4 0.4-4.3 1.7-6.5 2.9-2.2 1.1-5.7 3.8-7.7 5.9-2 2.1-4.9 6.5-6.4 9.8-2 4.3-2.7 7.7-2.7 12 0 3.3 0.8 8.5 1.8 11.5 1.4 4.1 3.3 7 7.9 11.6 4.6 4.6 7.5 6.5 11.6 7.9 3 1 8.2 1.8 11.5 1.8 4.2 0 7.7-0.7 11.5-2.5 3-1.3 7.3-4 9.5-6 2.2-1.9 5.3-6 7-8.9 2.7-4.9 3-6.3 3-14.4 0-7.5-0.4-9.8-2.5-14-1.3-2.8-4.5-7.1-7-9.6-2.9-2.9-6.6-5.3-10.3-6.7q-5.7-2.2-11.9-2.1c-3.5 0-7.4 0.4-8.8 0.8z"/>
		<path id="Path 13" class="s0" d="m61.5 185.1c-2.8 0.5-6.8 1.8-9 2.8-2.2 1.1-6.1 4.3-8.8 7-2.6 2.8-5.7 7.2-6.9 9.9-1.7 3.7-2.2 6.6-2.3 13.2 0 7.2 0.4 9.3 2.7 14 1.4 3.1 5 7.7 8 10.5 3.5 3.4 7.1 5.7 10.8 6.9 4.2 1.4 7.4 1.8 14 1.4 6.3-0.3 9.7-1 13-2.8 2.5-1.3 6.5-4.4 9-6.9 2.9-2.9 5.4-6.8 6.9-10.6 1.9-5 2.2-7.4 1.9-14.5-0.3-7.1-0.9-9.4-3.3-13.9-1.7-2.9-4.8-7-7-8.9-2.2-2-6.3-4.6-9-5.8-2.8-1.2-7.3-2.4-10-2.7-2.8-0.2-7.3-0.1-10 0.4z"/>
		<path id="Path 14" class="s1" d="m62.5 186.2c-2.8 0.4-6.8 1.7-9 2.7-2.2 1.1-6.1 4.3-8.8 7-2.6 2.8-5.7 7.2-6.9 9.9-1.6 3.5-2.2 6.6-2.2 12.2-0.1 6.1 0.4 8.5 2.6 13 1.5 3.1 5 7.7 8 10.5 3.5 3.4 7.1 5.7 10.8 6.9 4.1 1.4 7.4 1.8 13 1.4 5.2-0.3 8.9-1.2 12-2.8 2.5-1.3 6.5-4.4 9-6.9 2.9-2.9 5.4-6.8 6.9-10.6 1.9-4.9 2.2-7.4 1.9-13.5-0.3-5.9-1-8.6-3.4-12.9-1.6-2.9-4.7-7-6.9-8.9-2.2-2-6.3-4.6-9-5.8-2.7-1.2-6.8-2.4-9-2.6-2.2-0.2-6.3-0.1-9 0.4z"/>
		<path id="Path 15" class="s0" d="m298.5 149.7c-0.5 0.3-0.8 25.1-0.7 55l0.2 54.3c8.9 5 15 9.8 19.4 14 4.3 4.1 10 10.5 12.7 14.3 2.7 3.7 5.3 6.7 5.9 6.7 0.6 0 1.7-0.2 2.5-0.5 1.3-0.4 1.5-9.1 1.5-69.5 0-50-0.3-69.6-1.1-71.2-0.7-1.3-1.7-2.6-2.3-3-0.6-0.4-9.2-0.8-19.2-0.8-9.9 0-18.4 0.3-18.9 0.7z"/>
		<path id="Path 16" class="s1" d="m299.5 150.7c-0.5 0.3-0.8 24.6-0.7 54l0.2 53.3c8.9 5 15 9.8 19.4 14 4.3 4.1 10 10.5 12.7 14.3 3.2 4.4 5.4 6.5 6.4 6.2 1.3-0.4 1.5-8.9 1.5-68.5 0-49.3-0.3-68.6-1.1-70.2-0.7-1.3-1.7-2.6-2.3-3-0.6-0.4-8.8-0.8-18.2-0.8-9.4 0-17.4 0.3-17.9 0.7z"/>
		<path id="Path 17" class="s0" d="m100.6 98.5c-0.3 0.8-0.6 9-0.6 18.3 0 15.7 0.2 16.9 2.4 20.7 1.3 2.2 4.3 5.6 6.7 7.6 2.4 2 7.6 5.2 11.4 7.2 3.8 1.9 9.9 4.5 13.5 5.7 3.6 1.2 9.4 2.8 13 3.5 3.6 0.7 11.9 1.7 18.5 2 7.3 0.5 15.7 0.3 21.5-0.4 5.2-0.6 12.9-2.1 17-3.2 4.1-1.1 11.1-3.7 15.5-5.9 4.4-2.2 10.7-6.3 14-9.3 3.3-2.9 6.6-6.7 7.3-8.3 0.9-2.1 1.2-7.9 1-20.4l-0.3-17.5c-5.1-0.5-12.7 2.5-29 10.1-12.7 5.8-26.7 12.4-31.2 14.5l-8.3 3.9c-51.4-23.4-67.3-30-68.9-30-1.7 0-3.2 0.6-3.5 1.5z"/>
		<path id="Path 18" class="s1" d="m101.6 99.5c-0.3 0.8-0.6 8.6-0.6 17.3 0 14.7 0.2 16 2.4 19.7 1.3 2.2 4.3 5.6 6.7 7.6 2.4 2 7.6 5.2 11.4 7.2 3.8 1.9 9.9 4.5 13.5 5.7 3.6 1.2 9.4 2.8 13 3.5 3.6 0.7 11.4 1.6 17.5 2 6.6 0.4 14.8 0.3 20.5-0.4 5.2-0.6 12.9-2.1 17-3.2 4.1-1.1 11.1-3.7 15.5-5.9 4.4-2.2 10.7-6.3 14-9.3 3.3-2.9 6.6-6.7 7.3-8.3 0.9-2 1.2-7.7 1-19.4-0.3-15.6-0.4-16.5-2.3-16.8-1.1-0.2-12.3 4.5-25 10.4-12.7 5.8-26.7 12.4-31.2 14.5-4.6 2.2-8.7 3.9-9.3 3.9-0.6 0-15.8-6.7-34-15-18.2-8.2-33.9-15-34.9-15-1.1 0-2.2 0.7-2.5 1.5z"/>
		<path id="Path 19" class="s0" d="m167 4.7c-0.8 0.3-22.6 9.9-48.5 21.3-25.9 11.4-51.4 22.7-56.9 25.1-5.4 2.4-10.3 5.2-10.7 6.1-0.5 1-0.9 2.8-0.9 4-0.1 1.3 0.7 3 1.7 3.9 1 0.9 7.6 4.3 14.8 7.4 7.2 3.2 33.5 14.7 58.5 25.7 35.5 15.5 46.2 19.8 48.5 19.5 1.7-0.3 19-7.6 38.5-16.2 19.5-8.6 35.9-16 36.3-16.3 0.4-0.4 0.5-1.9 0.2-3.5-0.4-2.3-1.3-2.9-5.8-4.2-2.8-0.8-13.1-3-22.7-4.9-9.6-1.9-24.5-4.2-33-5.1-8.5-0.9-16.1-1.9-16.8-2.1-0.6-0.2-1.2-1.2-1.2-2.2-0.1-0.9 0.7-2.4 1.6-3.2 1.4-1.2 3.3-1.4 11.3-0.7 5.3 0.4 15.6 1.7 22.8 2.7 7.3 1.1 18.6 3.2 25 4.6 6.5 1.5 16.5 4 22.3 5.6 5.9 1.6 11.1 3.6 11.8 4.6 0.8 1.2 1.2 5.6 1.2 14.2l-0.1 12.5c-5.6 4.6-6.2 5.9-6.6 10.2-0.4 4.1 0 6 1.6 8.8l2.1 3.5c-5.5 19.1-7 26.1-6.8 28 0.2 2.7 1 3.8 3.3 5 2.1 1 6 1.5 13 1.4 6.3 0 10.9-0.5 12.5-1.4 1.4-0.7 2.8-1.8 3.2-2.4 0.4-0.6 0.8-2.1 0.8-3.3 0-1.3-1.6-8-3.5-15l-3.6-12.8c3.7-7 4.1-9.1 3.7-12.2-0.4-3.1-1.5-5.1-3.6-7l-3-2.8v-30.5l15.5-7.5c0.5-8.8 0.2-9.7-1.8-10.7-1.2-0.6-14.3-6.4-29.2-12.9-14.8-6.4-40.6-17.6-57.3-24.8-19.4-8.4-31.4-13.1-33.5-13-1.7 0-3.9 0.3-4.7 0.6z"/>
		<path id="Path 20" class="s1" d="m167.5 5.9c-1.1 0.5-24.7 10.8-52.5 23-27.8 12.3-53.3 23.6-56.8 25.2-4.9 2.3-6.3 3.5-6.8 5.7-0.4 1.9-0.1 3.2 1.2 4.4 1.1 0.9 7.7 4.2 14.9 7.3 7.2 3.2 33.5 14.7 58.5 25.7 28 12.2 46.3 19.7 47.5 19.4 1.1-0.3 18-7.5 37.5-16.1 19.5-8.7 35.8-15.9 36.3-16.1 0.4-0.2 0.4-1.3-0.1-2.4-0.4-1.4-2.4-2.6-5.7-3.5-2.8-0.8-12.9-3-22.5-4.9-9.6-1.9-24.5-4.2-33-5.1-8.5-0.9-16.1-1.9-16.8-2.1-0.6-0.2-1.2-1.6-1.2-3.1-0.1-1.6 0.7-3.5 1.6-4.3 1.4-1.2 3.5-1.4 11.8-0.8 5.5 0.4 16.3 1.7 23.8 2.8 7.6 1.1 19.1 3.2 25.5 4.6 6.5 1.5 16.5 4 22.3 5.6 5.9 1.6 11.1 3.6 11.8 4.6 0.8 1.2 1.2 5.8 1.2 15.2l-0.1 13.5c-5.4 4.4-6.2 6-6.6 9.5-0.4 3.6 0 5.2 1.9 8l2.4 3.5c-6 20.2-7.6 27.1-7.4 28.5 0.2 1.6 1.4 3 3.3 4 1.9 0.9 6 1.4 11.5 1.4 5.3 0 9.8-0.5 11.8-1.4 1.9-0.8 3.6-2.4 3.8-3.5 0.3-1.1-1.2-8.1-3.3-15.5l-3.9-13.5c4.1-8 4.5-9.8 3.9-12.4-0.5-1.9-2-4.6-3.6-6l-2.7-2.6v-32.5c15.2-7.4 15.5-7.6 15.7-11.2 0.3-3.1-0.1-4-2-5-1.2-0.6-14.3-6.4-29.2-12.9-14.8-6.4-40.6-17.6-57.3-24.8-16.6-7.2-31.2-13.1-32.5-13-1.2 0-3.1 0.4-4.2 0.8z"/>
	</g>
</svg>